<svg width="21" height="21" viewBox="0 0 21 21" fill="none" xmlns="http://www.w3.org/2000/svg">
<path d="M10.5014 12.6C9.92878 12.6 9.37966 12.3788 8.97478 11.9849C8.56991 11.5911 8.34245 11.057 8.34245 10.5C8.34245 9.94305 8.56991 9.4089 8.97478 9.01508C9.37966 8.62125 9.92878 8.4 10.5014 8.4C11.0739 8.4 11.6231 8.62125 12.0279 9.01508C12.4328 9.4089 12.6603 9.94305 12.6603 10.5C12.6603 11.057 12.4328 11.5911 12.0279 11.9849C11.6231 12.3788 11.0739 12.6 10.5014 12.6ZM15.0844 11.082C15.1091 10.89 15.1276 10.698 15.1276 10.5C15.1276 10.302 15.1091 10.104 15.0844 9.9L16.3859 8.922C16.5031 8.832 16.534 8.67 16.46 8.538L15.2263 6.462C15.1523 6.33 14.9857 6.276 14.85 6.33L13.3141 6.93C12.9934 6.696 12.6603 6.492 12.2717 6.342L12.0434 4.752C12.0188 4.608 11.8892 4.5 11.735 4.5H9.2677C9.11349 4.5 8.98396 4.608 8.95928 4.752L8.73105 6.342C8.34245 6.492 8.00936 6.696 7.68861 6.93L6.1527 6.33C6.01699 6.276 5.85045 6.33 5.77643 6.462L4.54277 8.538C4.46258 8.67 4.49959 8.832 4.61679 8.922L5.9183 9.9C5.89363 10.104 5.87512 10.302 5.87512 10.5C5.87512 10.698 5.89363 10.89 5.9183 11.082L4.61679 12.078C4.49959 12.168 4.46258 12.33 4.54277 12.462L5.77643 14.538C5.85045 14.67 6.01699 14.718 6.1527 14.67L7.68861 14.064C8.00936 14.304 8.34245 14.508 8.73105 14.658L8.95928 16.248C8.98396 16.392 9.11349 16.5 9.2677 16.5H11.735C11.8892 16.5 12.0188 16.392 12.0434 16.248L12.2717 14.658C12.6603 14.502 12.9934 14.304 13.3141 14.064L14.85 14.67C14.9857 14.718 15.1523 14.67 15.2263 14.538L16.46 12.462C16.534 12.33 16.5031 12.168 16.3859 12.078L15.0844 11.082Z" fill="#E65100"/>
</svg>
