<svg width="24" height="24" viewBox="0 0 24 24" fill="none" xmlns="http://www.w3.org/2000/svg">
<path d="M18.8668 10.0666V17.6759C18.8668 18.5946 18.5018 19.4757 17.8522 20.1253C17.2026 20.7749 16.3215 21.1399 15.4028 21.1399H8.47475C7.55604 21.1399 6.67495 20.7749 6.02533 20.1253C5.3757 19.4757 5.01074 18.5946 5.01074 17.6759V6.12917C5.01074 5.21046 5.3757 4.32937 6.02533 3.67975C6.67495 3.03012 7.55604 2.66516 8.47475 2.66516H11.4653C11.7683 2.66644 12.0585 2.7867 12.2736 3.00002L18.5319 9.25832C18.7452 9.47339 18.8655 9.76367 18.8668 10.0666Z" fill="white" stroke="white" stroke-width="1.5" stroke-miterlimit="10" stroke-linecap="round"/>
<path d="M11.9387 3.21939V8.43849C11.9387 8.74473 12.0604 9.03842 12.2769 9.25497C12.4935 9.47151 12.7872 9.59316 13.0934 9.59316H18.3125C18.3577 9.59253 18.4017 9.57864 18.4391 9.55322C18.4765 9.52781 18.5056 9.49198 18.5228 9.45018C18.54 9.40838 18.5446 9.36245 18.5359 9.31808C18.5273 9.27371 18.5058 9.23285 18.4741 9.20057L12.3313 3.05774C12.299 3.02609 12.2582 3.00461 12.2138 2.99596C12.1694 2.98732 12.1235 2.99188 12.0817 3.00909C12.0399 3.02631 12.0041 3.05541 11.9787 3.09279C11.9532 3.13017 11.9394 3.17419 11.9387 3.21939Z" fill="#E65100" stroke="white" stroke-width="1.5" stroke-linecap="round" stroke-linejoin="round"/>
<path d="M14.8253 17.6759H9.052" stroke="#E65100" stroke-width="1.5" stroke-linecap="round" stroke-linejoin="round"/>
<path d="M12.516 14.2118H9.052" stroke="#E65100" stroke-width="1.5" stroke-linecap="round" stroke-linejoin="round"/>
</svg>
