<svg width="21" height="21" viewBox="0 0 21 21" fill="none" xmlns="http://www.w3.org/2000/svg">
<path d="M8.91605 4.50002C7.79923 4.49405 6.71196 5.58223 7.20832 6.9335H5.33514C5.0217 6.9335 4.7211 7.05949 4.49947 7.28375C4.27783 7.50801 4.15332 7.81217 4.15332 8.12931V9.32513C4.15332 9.4837 4.21558 9.63578 4.32639 9.74791C4.43721 9.86004 4.58751 9.92303 4.74423 9.92303H10.0624V8.12931H11.2442V9.92303H16.5624C16.7191 9.92303 16.8694 9.86004 16.9802 9.74791C17.0911 9.63578 17.1533 9.4837 17.1533 9.32513V8.12931C17.1533 7.81217 17.0288 7.50801 16.8072 7.28375C16.5855 7.05949 16.2849 6.9335 15.9715 6.9335H14.0983C14.7897 4.97835 12.1897 3.59719 10.9901 5.28328L10.6533 5.73769L10.3165 5.27132C9.94423 4.73919 9.43014 4.506 8.91605 4.50002ZM8.88059 5.73769C9.4065 5.73769 9.67241 6.38343 9.30014 6.76011C8.92787 7.13679 8.28968 6.86773 8.28968 6.3356C8.28968 6.17702 8.35194 6.02494 8.46276 5.91281C8.57357 5.80068 8.72387 5.73769 8.88059 5.73769ZM12.426 5.73769C12.952 5.73769 13.2179 6.38343 12.8456 6.76011C12.4733 7.13679 11.8351 6.86773 11.8351 6.3356C11.8351 6.17702 11.8974 6.02494 12.0082 5.91281C12.119 5.80068 12.2693 5.73769 12.426 5.73769ZM4.74423 10.5209V15.3042C4.74423 15.6213 4.86874 15.9255 5.09038 16.1498C5.31201 16.374 5.61261 16.5 5.92605 16.5H15.3806C15.694 16.5 15.9946 16.374 16.2163 16.1498C16.4379 15.9255 16.5624 15.6213 16.5624 15.3042V10.5209H11.2442V15.3042H10.0624V10.5209H4.74423Z" fill="#E65100"/>
</svg>
