<svg width="21" height="21" viewBox="0 0 21 21" fill="none" xmlns="http://www.w3.org/2000/svg">
<path d="M9.61111 14.0833H10.8889V12.8056H9.61111V14.0833ZM10.25 6.41667C9.57222 6.41667 8.92221 6.68591 8.44295 7.16517C7.96369 7.64443 7.69444 8.29445 7.69444 8.97222H8.97222C8.97222 8.63333 9.10685 8.30833 9.34648 8.0687C9.5861 7.82907 9.91111 7.69444 10.25 7.69444C10.5889 7.69444 10.9139 7.82907 11.1535 8.0687C11.3932 8.30833 11.5278 8.63333 11.5278 8.97222C11.5278 10.25 9.61111 10.0903 9.61111 12.1667H10.8889C10.8889 10.7292 12.8056 10.5694 12.8056 8.97222C12.8056 8.29445 12.5363 7.64443 12.0571 7.16517C11.5778 6.68591 10.9278 6.41667 10.25 6.41667ZM5.77778 4.5H14.7222C15.0611 4.5 15.3861 4.63462 15.6257 4.87425C15.8654 5.11388 16 5.43889 16 5.77778V14.7222C16 15.0611 15.8654 15.3861 15.6257 15.6257C15.3861 15.8654 15.0611 16 14.7222 16H5.77778C5.43889 16 5.11388 15.8654 4.87425 15.6257C4.63462 15.3861 4.5 15.0611 4.5 14.7222V5.77778C4.5 5.43889 4.63462 5.11388 4.87425 4.87425C5.11388 4.63462 5.43889 4.5 5.77778 4.5Z" fill="#E65100"/>
</svg>
