<svg width="19" height="19" viewBox="0 0 19 19" fill="none" xmlns="http://www.w3.org/2000/svg">
<path d="M13.9783 6.45515L15.904 8.38084C16.201 8.67777 16.3678 9.0805 16.3678 9.50042C16.3678 9.92035 16.201 10.3231 15.904 10.62L13.9783 12.5457C12.7906 13.7334 11.1797 14.4007 9.5 14.4007C7.8203 14.4007 6.20939 13.7334 5.02166 12.5457L3.09597 10.62C2.79904 10.3231 2.63222 9.92035 2.63222 9.50042C2.63222 9.0805 2.79904 8.67777 3.09597 8.38084L5.02166 6.45515C6.20939 5.26742 7.8203 4.60016 9.5 4.60016C11.1797 4.60016 12.7906 5.26742 13.9783 6.45515Z" stroke="#A479FE" stroke-linecap="round" stroke-linejoin="round"/>
<path d="M9.50001 11.4791C10.5931 11.4791 11.4792 10.593 11.4792 9.49998C11.4792 8.40692 10.5931 7.52081 9.50001 7.52081C8.40695 7.52081 7.52084 8.40692 7.52084 9.49998C7.52084 10.593 8.40695 11.4791 9.50001 11.4791Z" stroke="#A479FE" stroke-linecap="round" stroke-linejoin="round"/>
</svg>
