<svg width="19" height="19" viewBox="0 0 19 19" fill="none" xmlns="http://www.w3.org/2000/svg">
<path d="M3.82374 11.8196L11.8196 3.82377C11.8932 3.74957 11.9807 3.69068 12.0772 3.65048C12.1737 3.61029 12.2772 3.5896 12.3817 3.5896C12.4862 3.5896 12.5896 3.61029 12.6861 3.65048C12.7826 3.69068 12.8701 3.74957 12.9437 3.82377L15.1762 6.05627C15.2504 6.12987 15.3093 6.21743 15.3495 6.3139C15.3897 6.41037 15.4104 6.51385 15.4104 6.61836C15.4104 6.72287 15.3897 6.82634 15.3495 6.92281C15.3093 7.01928 15.2504 7.10684 15.1762 7.18044L7.18041 15.1763C7.10709 15.2511 7.01965 15.3106 6.92317 15.3514C6.82668 15.3921 6.72307 15.4133 6.61833 15.4138H4.37791C4.16795 15.4138 3.96658 15.3304 3.81812 15.1819C3.66965 15.0334 3.58624 14.8321 3.58624 14.6221V12.3817C3.58668 12.2769 3.60789 12.1733 3.64866 12.0768C3.68943 11.9804 3.74894 11.8929 3.82374 11.8196Z" fill="#A479FE" stroke="#A479FE" stroke-linecap="round" stroke-linejoin="round"/>
<path d="M9.89584 5.7475L13.2525 9.10416" stroke="white" stroke-linecap="square" stroke-linejoin="round"/>
</svg>
