<svg width="15" height="15" viewBox="0 0 15 15" fill="none" xmlns="http://www.w3.org/2000/svg">
<path d="M10.625 1.875H4.375C2.99429 1.875 1.875 2.99429 1.875 4.375V10.625C1.875 12.0057 2.99429 13.125 4.375 13.125H10.625C12.0057 13.125 13.125 12.0057 13.125 10.625V4.375C13.125 2.99429 12.0057 1.875 10.625 1.875Z" stroke="#A479FE" stroke-linecap="round" stroke-linejoin="round"/>
<path d="M1.875 10.625L4.11875 8.38125C4.35295 8.14844 4.66977 8.01776 5 8.01776C5.33023 8.01776 5.64705 8.14844 5.88125 8.38125L7.24375 9.74375C7.47795 9.97656 7.79477 10.1072 8.125 10.1072C8.45523 10.1072 8.77205 9.97656 9.00625 9.74375L13.125 5.625" stroke="#A479FE" stroke-linecap="round" stroke-linejoin="round"/>
</svg>
