<svg width="24" height="24" viewBox="0 0 24 24" fill="none" xmlns="http://www.w3.org/2000/svg">
<g clip-path="url(#clip0_2651_2543)">
<path d="M22.629 20.4175C22.3043 20.0378 21.5449 18.5195 21.5449 18.5195C21.5449 18.5195 21.6704 18.3578 21.5449 17.814C21.3818 17.1092 20.6771 17.163 20.5147 17.0007C20.3516 16.838 18.9421 14.2621 18.8336 13.9636C18.7252 13.665 17.5318 10.2763 17.5318 10.2763C17.1311 8.51363 16.3924 7.78158 15.4168 7.56459C14.4493 7.34986 13.9253 7.40189 13.4914 7.0222C13.2205 6.7853 13.2301 6.60928 13.2301 5.89458C13.2301 5.89458 13.5224 5.61675 13.7356 5.23261C13.9792 4.79316 14.0987 4.15884 14.0987 4.15884C14.343 4.06106 14.346 3.93928 14.4515 3.55111C14.5976 3.01388 14.5873 2.64562 14.1969 2.64562C14.2892 0.893719 13.4102 0 12 0C10.5905 0 9.71152 0.893719 9.80377 2.64567C9.41339 2.64567 9.40233 3.01392 9.54914 3.55116C9.65466 3.93933 9.65761 4.06111 9.90117 4.15889C9.90117 4.15889 10.0207 4.7932 10.265 5.23266C10.4783 5.61675 10.7705 5.89462 10.7705 5.89462C10.7705 6.60933 10.7794 6.78534 10.5085 7.02225C10.0753 7.40194 9.55064 7.34991 8.58389 7.56464C7.60758 7.78158 6.86958 8.51367 6.46889 10.2764C6.46889 10.2764 5.27559 13.6651 5.16713 13.9636C5.05866 14.2621 3.64833 16.838 3.486 17.0008C3.32363 17.1631 2.61816 17.1092 2.45578 17.814C2.33034 18.3579 2.45578 18.5195 2.45578 18.5195C2.45578 18.5195 1.69641 20.0379 1.37095 20.4176C1.04555 20.7969 1.64255 21.0681 2.02186 20.58C2.06611 20.646 2.21667 20.6936 2.38716 20.7165C1.06397 22.1813 1.81819 24.0898 3.86606 23.9968C5.54489 23.9203 12 22.7492 12 22.7492C12 22.7492 18.455 23.9203 20.1347 23.9967C22.1826 24.0897 22.9368 22.1813 21.6128 20.7164C21.784 20.6935 21.9346 20.646 21.9788 20.5799C22.3582 21.0681 22.9545 20.7968 22.629 20.4175ZM8.58389 17.9929C8.58389 17.9929 5.80542 18.8191 4.07489 19.5976C4.43133 18.9342 4.84163 18.0309 4.84163 18.0309L6.57736 15.5366L7.96036 12.5264C7.96036 12.5264 8.39428 14.1536 8.52933 14.3975C8.66508 14.6414 8.58389 17.9929 8.58389 17.9929ZM15.4168 17.9929C15.4168 17.9929 15.3356 14.6415 15.4706 14.3975C15.6064 14.1536 16.0403 12.5264 16.0403 12.5264L17.4233 15.5366L19.1583 18.0309C19.1583 18.0309 19.5694 18.9342 19.9258 19.5976C18.1952 18.8191 15.4168 17.9929 15.4168 17.9929Z" fill="black"/>
</g>
<defs>
<clipPath id="clip0_2651_2543">
<rect width="24" height="24" fill="white"/>
</clipPath>
</defs>
</svg>
