<svg width="24" height="24" viewBox="0 0 24 24" fill="none" xmlns="http://www.w3.org/2000/svg">
<g clip-path="url(#clip0_2651_2537)">
<path d="M13.2279 2.6879C12.5057 2.12617 11.4944 2.12617 10.7722 2.6879L2.38841 9.2086C1.63605 9.79377 2.04989 10.9998 3.00297 10.9998H4.00005V18.9998C4.00005 20.1044 4.89548 20.9998 6.00005 20.9998H10V14.9998C10 13.8952 10.8954 12.9998 12 12.9998C13.1046 12.9998 14 13.8952 14 14.9998V20.9998H18.0001C19.1046 20.9998 20.0001 20.1044 20.0001 18.9998V10.9998H20.9971C21.9492 10.9998 22.3648 9.79439 21.6117 9.2086L13.2279 2.6879Z" fill="black"/>
</g>
<defs>
<clipPath id="clip0_2651_2537">
<rect width="24" height="24" fill="white"/>
</clipPath>
</defs>
</svg>
