<svg width="24" height="24" viewBox="0 0 24 24" fill="none" xmlns="http://www.w3.org/2000/svg">
<path d="M15.1232 4.43595C15.9264 5.23913 16.3436 6.14724 16.5 7.26584C16.5061 7.30633 16.5122 7.34681 16.5185 7.38852C16.6732 8.61381 16.4191 9.83822 15.9844 10.9807C15.97 11.02 15.9555 11.0594 15.9407 11.1C15.8674 11.2824 15.8257 11.3716 15.6588 11.4833C15.3375 11.5914 14.9044 11.7242 14.5768 11.5848C14.5162 11.5527 14.4563 11.5191 14.3978 11.4833C13.9575 11.2844 13.1724 11.3308 12.7095 11.4463C12.3167 11.5964 12.0697 11.8498 11.8916 12.2229C11.8067 12.6242 11.8289 13.0047 12.0469 13.3596C12.2967 13.6587 12.5568 13.8041 12.9375 13.8752C13.1665 13.8908 13.3937 13.8886 13.6231 13.884C13.6835 13.8834 13.744 13.8827 13.8063 13.8821C13.9543 13.8804 14.1021 13.8781 14.25 13.8752C14.2492 13.938 14.2492 13.938 14.2484 14.0021C14.2479 14.0571 14.2475 14.112 14.2471 14.1686C14.2463 14.2502 14.2463 14.2502 14.2454 14.3336C14.2539 14.6118 14.3411 14.7775 14.54 14.9739C14.9561 15.3115 15.4717 15.5039 15.9697 15.6858C17.1139 16.1049 18.2758 16.6599 19.2188 17.4377C19.2543 17.4661 19.2899 17.4945 19.3266 17.5238C19.8928 17.9921 20.2895 18.6297 20.3681 19.3669C20.4145 19.9646 20.4243 20.6093 20.0403 21.1059C19.9419 21.2184 19.8467 21.3228 19.7344 21.4221C19.7079 21.4464 19.6813 21.4708 19.654 21.4959C17.2461 23.5526 11.956 22.9857 9.0063 22.7595C7.31185 22.6208 5.19755 22.4381 4.01826 21.0595C3.66607 20.5963 3.55548 20.0181 3.63135 19.4462C3.68648 19.1023 3.76346 18.7736 3.93751 18.469C3.96542 18.419 3.96542 18.419 3.9939 18.3681C4.54572 17.4658 5.53713 16.9398 6.42799 16.4358C6.54777 16.3679 6.667 16.2992 6.78608 16.2301C7.48512 15.8283 8.22108 15.4937 8.97466 15.2074C9.35052 15.0597 9.58931 14.8874 9.7555 14.5165C9.86145 14.1949 9.82418 13.9093 9.6742 13.6094C9.54363 13.3895 9.38843 13.1883 9.23438 12.9846C7.95486 11.272 7.27962 9.29698 7.56135 7.14371C7.73089 5.99076 8.29807 4.88579 9.23438 4.17209C10.9713 3.04338 13.548 2.94133 15.1232 4.43595Z" fill="black"/>
<path d="M16.3125 2.6717C17.6322 3.79189 18.5941 5.33174 18.7969 7.07795C18.8018 7.16974 18.8067 7.26154 18.8115 7.35334C18.826 7.52958 18.8328 7.57987 18.9463 7.72248C18.9898 7.75729 19.0333 7.79209 19.0781 7.82795C19.1292 7.88149 19.1789 7.93626 19.2275 7.99201C19.2504 8.01763 19.2733 8.04325 19.2969 8.06965C19.4355 8.2615 19.465 8.43966 19.4667 8.67284C19.4673 8.72871 19.4679 8.78458 19.4686 8.84214C19.4687 8.93216 19.4687 8.93216 19.4689 9.02399C19.4692 9.08676 19.4695 9.14952 19.4698 9.21228C19.4704 9.34373 19.4705 9.47517 19.4705 9.60661C19.4705 9.77405 19.4718 9.94144 19.4734 10.1089C19.4744 10.2385 19.4746 10.3682 19.4746 10.4978C19.4747 10.5893 19.4757 10.6807 19.4768 10.7721C19.4748 11.1637 19.4292 11.4734 19.1752 11.7814C19.1451 11.8061 19.115 11.8308 19.084 11.8563C19.0541 11.8818 19.0243 11.9074 18.9935 11.9337C18.766 12.0799 18.5507 12.1065 18.2842 12.1053C18.2023 12.1057 18.2023 12.1057 18.1188 12.106C17.9531 12.0936 17.9531 12.0936 17.7876 12.0357C17.6238 11.9833 17.6238 11.9833 17.4725 12.0628C17.4213 12.0962 17.3701 12.1295 17.3174 12.1639C17.2595 12.1996 17.2014 12.2351 17.1432 12.2703C17.1141 12.2881 17.0849 12.3059 17.0548 12.3242C16.4469 12.6816 15.7329 12.8393 15.042 12.9423C14.6979 12.9938 14.4962 13.055 14.25 13.3123C14.0139 13.379 13.7727 13.3678 13.5293 13.368C13.4861 13.3686 13.443 13.3691 13.3986 13.3697C12.8307 13.3709 12.8307 13.3709 12.6112 13.1895C12.5893 13.1614 12.5675 13.1333 12.5449 13.1043C12.511 13.0624 12.511 13.0624 12.4764 13.0195C12.3581 12.8412 12.3609 12.6765 12.375 12.4686C12.4682 12.2184 12.605 12.0723 12.8437 11.9529C13.0344 11.9409 13.2251 11.9402 13.4162 11.9391C13.5107 11.9383 13.6052 11.9363 13.6998 11.9342C13.7598 11.9338 13.8198 11.9334 13.8816 11.933C13.9365 11.9323 13.9914 11.9316 14.0479 11.9309C14.2479 11.9593 14.3882 12.0443 14.5312 12.1873C15.4305 12.2093 16.4409 11.8772 17.1562 11.3436C17.1487 11.3179 17.1411 11.2922 17.1333 11.2658C17.1062 11.1413 17.1027 11.028 17.1018 10.9005C17.1014 10.8493 17.1009 10.7982 17.1005 10.7454C17.1002 10.6627 17.1002 10.6627 17.0998 10.5784C17.0996 10.5214 17.0993 10.4644 17.099 10.4057C17.0986 10.285 17.0983 10.1643 17.0981 10.0436C17.0977 9.85975 17.0962 9.67593 17.0947 9.4921C17.0944 9.3747 17.0942 9.2573 17.094 9.1399C17.0934 9.08525 17.0928 9.03059 17.0922 8.97428C17.0933 8.59746 17.1263 8.25547 17.3613 7.94807C17.4829 7.82941 17.5625 7.79037 17.7187 7.7342C17.5786 6.54868 17.2855 5.50517 16.5469 4.5467C16.5176 4.50865 16.5176 4.50865 16.4878 4.46984C15.5508 3.2673 14.1893 2.53462 12.6862 2.33536C11.2477 2.163 9.7413 2.53177 8.58398 3.41877C8.48692 3.49641 8.39196 3.57596 8.29687 3.65607C8.25373 3.691 8.21059 3.72593 8.16613 3.76191C7.07322 4.69104 6.42928 6.10242 6.2959 7.5174C6.29059 7.58964 6.28553 7.6619 6.28125 7.7342C6.31684 7.7461 6.35243 7.75801 6.3891 7.77027C6.52515 7.83229 6.57774 7.88167 6.66504 8.0008C6.68794 8.03095 6.71084 8.0611 6.73443 8.09217C6.91927 8.4201 6.90501 8.75717 6.90472 9.12415C6.90492 9.18106 6.90512 9.23798 6.90533 9.29661C6.9056 9.41666 6.90562 9.5367 6.90542 9.65675C6.90527 9.83986 6.90637 10.0229 6.90756 10.206C6.90767 10.3229 6.9077 10.4399 6.90765 10.5568C6.90808 10.6112 6.90851 10.6657 6.90896 10.7218C6.90657 11.1433 6.83792 11.4773 6.5625 11.8123C6.18562 12.0946 5.85709 12.1287 5.39062 12.0936C5.05759 12.0172 4.8237 11.8161 4.64062 11.5311C4.5645 11.3353 4.53478 11.171 4.53325 10.9614C4.53266 10.9053 4.53206 10.8493 4.53144 10.7916C4.53134 10.7317 4.53123 10.6718 4.53112 10.6101C4.53082 10.5472 4.53051 10.4844 4.53018 10.4216C4.52962 10.2903 4.52944 10.1589 4.5295 10.0275C4.52951 9.86006 4.52823 9.69261 4.52661 9.52513C4.52557 9.39547 4.52538 9.26582 4.52543 9.13616C4.52527 9.04466 4.52426 8.95317 4.52322 8.86168C4.5252 8.47538 4.55931 8.20187 4.83307 7.91035C4.86527 7.88509 4.89748 7.85983 4.93066 7.83381C5.09509 7.70263 5.14903 7.65427 5.17474 7.43812C5.17784 7.40657 5.18093 7.37503 5.18412 7.34253C5.36578 5.50177 6.26403 3.84761 7.68643 2.66491C10.1582 0.689347 13.8493 0.655526 16.3125 2.6717Z" fill="black"/>
</svg>
