<svg width="21" height="21" viewBox="0 0 21 21" fill="none" xmlns="http://www.w3.org/2000/svg">
<path d="M11.1 8.7H9.9V7.5H11.1M11.1 13.5H9.9V9.9H11.1M10.5 4.5C9.71207 4.5 8.93185 4.65519 8.2039 4.95672C7.47595 5.25825 6.81451 5.70021 6.25736 6.25736C5.13214 7.38258 4.5 8.9087 4.5 10.5C4.5 12.0913 5.13214 13.6174 6.25736 14.7426C6.81451 15.2998 7.47595 15.7417 8.2039 16.0433C8.93185 16.3448 9.71207 16.5 10.5 16.5C12.0913 16.5 13.6174 15.8679 14.7426 14.7426C15.8679 13.6174 16.5 12.0913 16.5 10.5C16.5 9.71207 16.3448 8.93185 16.0433 8.2039C15.7417 7.47595 15.2998 6.81451 14.7426 6.25736C14.1855 5.70021 13.5241 5.25825 12.7961 4.95672C12.0681 4.65519 11.2879 4.5 10.5 4.5Z" fill="#E65100"/>
</svg>
