<svg width="20" height="21" viewBox="0 0 20 21" fill="none" xmlns="http://www.w3.org/2000/svg">
<path d="M14.1663 8H5.83301C4.4523 8 3.33301 9.11929 3.33301 10.5V15.5C3.33301 16.8807 4.4523 18 5.83301 18H14.1663C15.5471 18 16.6663 16.8807 16.6663 15.5V10.5C16.6663 9.11929 15.5471 8 14.1663 8Z" stroke="white" stroke-linecap="round" stroke-linejoin="round"/>
<path d="M8.86667 3.00003H11.125C11.3052 2.99893 11.4838 3.03347 11.6506 3.10166C11.8173 3.16984 11.969 3.27034 12.0968 3.39735C12.2246 3.52437 12.326 3.6754 12.3952 3.84176C12.4644 4.00812 12.5 4.18652 12.5 4.36669V8.00002H7.5V4.36669C7.5 4.00423 7.64399 3.65661 7.90029 3.40031C8.15659 3.14401 8.5042 3.00003 8.86667 3.00003Z" stroke="white" stroke-linecap="round" stroke-linejoin="round"/>
<path d="M9.99967 14.6666C10.9201 14.6666 11.6663 13.9205 11.6663 13C11.6663 12.0795 10.9201 11.3333 9.99967 11.3333C9.0792 11.3333 8.33301 12.0795 8.33301 13C8.33301 13.9205 9.0792 14.6666 9.99967 14.6666Z" stroke="white" stroke-linecap="round" stroke-linejoin="round"/>
</svg>
