<svg width="76" height="71" viewBox="0 0 76 71" fill="none" xmlns="http://www.w3.org/2000/svg">
<path d="M48.1667 37.5V42.5C48.1667 45.5 46.1667 47.5 43.1667 47.5H33.1667C30.1667 47.5 28.1667 45.5 28.1667 42.5V37.5C28.1667 34.78 29.8067 32.88 32.3567 32.56C32.6167 32.52 32.8867 32.5 33.1667 32.5H43.1667C43.4267 32.5 43.6767 32.51 43.9167 32.55C46.4967 32.85 48.1667 34.76 48.1667 37.5Z" stroke="#9DB2CE" stroke-width="1.5" stroke-linecap="round" stroke-linejoin="round"/>
<path d="M43.9181 32.55C43.6781 32.51 43.4281 32.5 43.1681 32.5H33.1681C32.8881 32.5 32.6181 32.52 32.3581 32.56C32.4981 32.28 32.6981 32.02 32.9381 31.78L36.1881 28.52C37.5581 27.16 39.7781 27.16 41.1481 28.52L42.8981 30.29C43.5381 30.92 43.8781 31.72 43.9181 32.55Z" stroke="#9DB2CE" stroke-width="1.5" stroke-linecap="round" stroke-linejoin="round"/>
<path d="M48.1667 38H45.1667C44.0667 38 43.1667 38.9 43.1667 40C43.1667 41.1 44.0667 42 45.1667 42H48.1667" stroke="#9DB2CE" stroke-width="1.5" stroke-linecap="round" stroke-linejoin="round"/>
</svg>
