<svg width="24" height="24" viewBox="0 0 24 24" fill="none" xmlns="http://www.w3.org/2000/svg">
<rect width="24" height="24" rx="12" fill="#E65100" fill-opacity="0.13"/>
<path d="M15 14.7348C14.544 14.7348 14.136 14.9337 13.824 15.2453L9.546 12.4939C9.576 12.3414 9.6 12.1889 9.6 12.0298C9.6 11.8707 9.576 11.7182 9.546 11.5657L13.776 8.84088C14.1 9.17237 14.526 9.37789 15 9.37789C15.996 9.37789 16.8 8.4895 16.8 7.38894C16.8 6.28839 15.996 5.39999 15 5.39999C14.004 5.39999 13.2 6.28839 13.2 7.38894C13.2 7.54806 13.224 7.70055 13.254 7.85303L9.024 10.5779C8.7 10.2464 8.274 10.0409 7.8 10.0409C6.804 10.0409 6 10.9293 6 12.0298C6 13.1304 6.804 14.0188 7.8 14.0188C8.274 14.0188 8.7 13.8133 9.024 13.4818L13.296 16.2331C13.266 16.3724 13.248 16.5182 13.248 16.6707C13.248 17.7381 14.034 18.6 15 18.6C15.966 18.6 16.752 17.7381 16.752 16.6707C16.752 15.6033 15.966 14.7348 15 14.7348ZM15 6.72596C15.33 6.72596 15.6 7.0243 15.6 7.38894C15.6 7.75359 15.33 8.05193 15 8.05193C14.67 8.05193 14.4 7.75359 14.4 7.38894C14.4 7.0243 14.67 6.72596 15 6.72596ZM7.8 12.6928C7.47 12.6928 7.2 12.3945 7.2 12.0298C7.2 11.6652 7.47 11.3668 7.8 11.3668C8.13 11.3668 8.4 11.6652 8.4 12.0298C8.4 12.3945 8.13 12.6928 7.8 12.6928ZM15 17.3337C14.67 17.3337 14.4 17.0354 14.4 16.6707C14.4 16.3061 14.67 16.0077 15 16.0077C15.33 16.0077 15.6 16.3061 15.6 16.6707C15.6 17.0354 15.33 17.3337 15 17.3337Z" fill="#E65100"/>
</svg>
