<svg width="24" height="24" viewBox="0 0 24 24" fill="none" xmlns="http://www.w3.org/2000/svg">
<path d="M17.6 3H7.4C5.52223 3 4 4.52223 4 6.4V16.6C4 18.4778 5.52223 20 7.4 20H17.6C19.4778 20 21 18.4778 21 16.6V6.4C21 4.52223 19.4778 3 17.6 3Z" stroke="white" stroke-width="1.2" stroke-linejoin="round"/>
<path d="M4 8.1H21M9.1 8.1L10.8 3M14.2 8.1L15.9 3" stroke="white" stroke-width="1.2" stroke-linecap="round" stroke-linejoin="round"/>
<path d="M11.5781 15.1603V11.7606C11.5781 11.5916 11.7748 11.4988 11.9053 11.6062L14.1282 13.4368C14.23 13.5207 14.2242 13.6785 14.1164 13.7546L11.8935 15.3237C11.761 15.4172 11.5781 15.3225 11.5781 15.1603Z" stroke="white"/>
</svg>
