<svg width="64" height="63" viewBox="0 0 64 63" fill="none" xmlns="http://www.w3.org/2000/svg">
<path d="M50.3721 26.4287V46.4031C50.3721 48.8147 49.4141 51.1275 47.7088 52.8328C46.0035 54.5381 43.6907 55.4961 41.2791 55.4961H23.093C20.6814 55.4961 18.3686 54.5381 16.6633 52.8328C14.958 51.1275 14 48.8147 14 46.4031V16.093C14 13.6814 14.958 11.3686 16.6633 9.66328C18.3686 7.95801 20.6814 7 23.093 7H30.9433C31.7385 7.00335 32.5005 7.31903 33.065 7.87899L49.4931 24.307C50.053 24.8716 50.3687 25.6336 50.3721 26.4287Z" stroke="white" stroke-width="2" stroke-miterlimit="10" stroke-linecap="round"/>
<path d="M32.1855 8.45486V22.155C32.1855 22.9589 32.5049 23.7298 33.0733 24.2983C33.6417 24.8667 34.4127 25.186 35.2166 25.186H48.9167C49.0353 25.1844 49.1509 25.1479 49.249 25.0812C49.3472 25.0145 49.4235 24.9204 49.4687 24.8107C49.5139 24.701 49.5259 24.5804 49.5032 24.4639C49.4805 24.3475 49.4241 24.2402 49.341 24.1555L33.2161 8.03052C33.1314 7.94745 33.0241 7.89107 32.9076 7.86837C32.7912 7.84567 32.6706 7.85766 32.5609 7.90284C32.4512 7.94802 32.3571 8.02441 32.2904 8.12254C32.2237 8.22066 32.1872 8.33622 32.1855 8.45486Z" stroke="white" stroke-width="2" stroke-linecap="round" stroke-linejoin="round"/>
<path d="M39.7634 46.4031H24.6084" stroke="white" stroke-width="2" stroke-linecap="round" stroke-linejoin="round"/>
<path d="M33.7014 37.3101H24.6084" stroke="white" stroke-width="2" stroke-linecap="round" stroke-linejoin="round"/>
</svg>
