<svg width="24" height="24" viewBox="0 0 24 24" fill="none" xmlns="http://www.w3.org/2000/svg">
<rect width="24" height="24" rx="12" fill="#E65100" fill-opacity="0.13"/>
<path d="M14.9549 7.80381C14.559 7.78446 14.163 7.83873 13.7907 7.96335C13.4184 8.08796 13.0776 8.28033 12.7889 8.52882C12.5002 8.77732 12.2696 9.07679 12.111 9.40912C11.9524 9.74145 11.8691 10.0998 11.8661 10.4624C11.8631 10.0998 11.7798 9.74145 11.6212 9.40912C11.4626 9.07679 11.232 8.77732 10.9433 8.52882C10.6546 8.28033 10.3138 8.08796 9.9415 7.96335C9.56922 7.83873 9.17319 7.78446 8.77733 7.80381C8.0026 7.86874 7.2841 8.2015 6.76829 8.73426C6.25249 9.26701 5.9782 9.95966 6.00135 10.671C6.00135 15.2907 10.1393 16.9121 11.4621 17.3413C11.7246 17.4196 12.0076 17.4196 12.2701 17.3413C13.5734 16.9419 17.7113 15.3205 17.7308 10.7008C17.7625 9.98442 17.492 9.28428 16.9754 8.74511C16.4588 8.20595 15.7354 7.86896 14.9549 7.80381Z" fill="#E65100" stroke="#E65100" stroke-linecap="round" stroke-linejoin="round"/>
</svg>
