<svg width="24" height="25" viewBox="0 0 24 25" fill="none" xmlns="http://www.w3.org/2000/svg">
<rect y="0.5" width="24" height="24" rx="12" fill="#E65100" fill-opacity="0.13"/>
<path d="M14.9549 8.30381C14.559 8.28446 14.163 8.33873 13.7907 8.46335C13.4184 8.58796 13.0776 8.78033 12.7889 9.02882C12.5002 9.27732 12.2696 9.57679 12.111 9.90912C11.9524 10.2415 11.8691 10.5998 11.8661 10.9624C11.8631 10.5998 11.7798 10.2415 11.6212 9.90912C11.4626 9.57679 11.232 9.27732 10.9433 9.02882C10.6546 8.78033 10.3138 8.58796 9.9415 8.46335C9.56922 8.33873 9.17319 8.28446 8.77733 8.30381C8.0026 8.36874 7.2841 8.7015 6.76829 9.23426C6.25249 9.76701 5.9782 10.4597 6.00135 11.171C6.00135 15.7907 10.1393 17.4121 11.4621 17.8413C11.7246 17.9196 12.0076 17.9196 12.2701 17.8413C13.5734 17.4419 17.7113 15.8205 17.7308 11.2008C17.7625 10.4844 17.492 9.78428 16.9754 9.24511C16.4588 8.70595 15.7354 8.36896 14.9549 8.30381Z" stroke="#E65100" stroke-linecap="round" stroke-linejoin="round"/>
</svg>
