<svg width="17" height="17" viewBox="0 0 17 17" fill="none" xmlns="http://www.w3.org/2000/svg">
<path d="M3.11331 10.4571C4.28046 10.4571 5.22662 9.51093 5.22662 8.34378C5.22662 7.17663 4.28046 6.23047 3.11331 6.23047C1.94616 6.23047 1 7.17663 1 8.34378C1 9.51093 1.94616 10.4571 3.11331 10.4571Z" stroke="#E65100" stroke-width="1.2" stroke-miterlimit="10" stroke-linecap="round"/>
<path d="M13.9756 5.22662C15.1428 5.22662 16.0889 4.28046 16.0889 3.11331C16.0889 1.94616 15.1428 1 13.9756 1C12.8085 1 11.8623 1.94616 11.8623 3.11331C11.8623 4.28046 12.8085 5.22662 13.9756 5.22662Z" stroke="#E65100" stroke-width="1.2" stroke-miterlimit="10" stroke-linecap="round"/>
<path d="M5.40527 7.23426L12.0728 4.02203" stroke="#E65100" stroke-width="1.2" stroke-miterlimit="10" stroke-linecap="round"/>
<path d="M13.9756 15.6875C15.1428 15.6875 16.0889 14.7413 16.0889 13.5742C16.0889 12.407 15.1428 11.4609 13.9756 11.4609C12.8085 11.4609 11.8623 12.407 11.8623 13.5742C11.8623 14.7413 12.8085 15.6875 13.9756 15.6875Z" stroke="#E65100" stroke-width="1.2" stroke-miterlimit="10" stroke-linecap="round"/>
<path d="M5.40527 9.45325L12.0728 12.6655" stroke="#E65100" stroke-width="1.2" stroke-miterlimit="10" stroke-linecap="round"/>
</svg>
