<svg width="64" height="63" viewBox="0 0 64 63" fill="none" xmlns="http://www.w3.org/2000/svg">
<path d="M45.4717 7.87888H19.2217C13.4227 7.87888 8.72168 12.5799 8.72168 18.3789V44.6289C8.72168 50.4279 13.4227 55.1289 19.2217 55.1289H45.4717C51.2707 55.1289 55.9717 50.4279 55.9717 44.6289V18.3789C55.9717 12.5799 51.2707 7.87888 45.4717 7.87888Z" stroke="white" stroke-width="2" stroke-linecap="round" stroke-linejoin="round"/>
<path d="M8.72168 44.6289L18.1454 35.2051C19.1291 34.2273 20.4597 33.6785 21.8467 33.6785C23.2337 33.6785 24.5643 34.2273 25.5479 35.2051L31.2704 40.9276C32.2541 41.9054 33.5847 42.4543 34.9717 42.4543C36.3587 42.4543 37.6893 41.9054 38.6729 40.9276L55.9717 23.6289" stroke="white" stroke-width="2" stroke-linecap="round" stroke-linejoin="round"/>
</svg>
