<svg width="24" height="24" viewBox="0 0 24 24" fill="none" xmlns="http://www.w3.org/2000/svg">
<rect width="24" height="24" rx="12" fill="#E65100" fill-opacity="0.13"/>
<path d="M12.0001 9.59999C13.3256 9.59999 14.4001 8.52547 14.4001 7.19999C14.4001 5.8745 13.3256 4.79999 12.0001 4.79999C10.6746 4.79999 9.6001 5.8745 9.6001 7.19999C9.6001 8.52547 10.6746 9.59999 12.0001 9.59999Z" stroke="#E65100" stroke-linecap="round" stroke-linejoin="round"/>
<path d="M16.448 11.9999H7.552C6.69485 11.9999 6 12.6948 6 13.5519V16.4479C6 17.3051 6.69485 17.9999 7.552 17.9999H16.448C17.3051 17.9999 18 17.3051 18 16.4479V13.5519C18 12.6948 17.3051 11.9999 16.448 11.9999Z" stroke="#E65100" stroke-linecap="round" stroke-linejoin="round"/>
</svg>
