<svg width="24" height="25" viewBox="0 0 24 25" fill="none" xmlns="http://www.w3.org/2000/svg">
<rect y="0.5" width="24" height="24" rx="12" fill="#E65100" fill-opacity="0.13"/>
<path d="M8.125 17.01C8.12834 16.8443 8.07347 16.6827 7.96993 16.5532C7.86639 16.4238 7.72074 16.3348 7.55833 16.3017C7.1105 16.1778 6.71562 15.9105 6.43417 15.5408C6.15272 15.171 6.00021 14.7192 6 14.2546V10.125C6 9.56141 6.22388 9.02091 6.6224 8.6224C7.02091 8.22388 7.56141 8 8.125 8H14.925C15.4886 8 16.0291 8.22388 16.4276 8.6224C16.8261 9.02091 17.05 9.56141 17.05 10.125V14.2688C17.05 14.8323 16.8261 15.3728 16.4276 15.7714C16.0291 16.1699 15.4886 16.3938 14.925 16.3938H11.2346C11.0488 16.3945 10.8707 16.4683 10.7388 16.5992L8.72708 18.625C8.67715 18.6739 8.61384 18.707 8.54514 18.72C8.47644 18.7331 8.40543 18.7255 8.34104 18.6982C8.27665 18.6709 8.22178 18.6252 8.18333 18.5668C8.14489 18.5084 8.12459 18.4399 8.125 18.37V17.01Z" stroke="#E65100" stroke-miterlimit="10"/>
<path d="M9.3999 12.1438V12.1509" stroke="#E65100" stroke-width="1.2" stroke-linecap="round" stroke-linejoin="round"/>
<path d="M11.5249 12.1438V12.1509" stroke="#E65100" stroke-width="1.2" stroke-linecap="round" stroke-linejoin="round"/>
<path d="M13.6499 12.1438V12.1509" stroke="#E65100" stroke-width="1.2" stroke-linecap="round" stroke-linejoin="round"/>
</svg>
