<svg width="21" height="21" viewBox="0 0 21 21" fill="none" xmlns="http://www.w3.org/2000/svg">
<path d="M5.08366 7.99998C5.41518 7.99998 5.73312 7.86828 5.96754 7.63386C6.20196 7.39944 6.33366 7.0815 6.33366 6.74998C6.33366 6.41846 6.20196 6.10052 5.96754 5.8661C5.73312 5.63168 5.41518 5.49998 5.08366 5.49998C4.75214 5.49998 4.4342 5.63168 4.19978 5.8661C3.96535 6.10052 3.83366 6.41846 3.83366 6.74998C3.83366 7.0815 3.96535 7.39944 4.19978 7.63386C4.4342 7.86828 4.75214 7.99998 5.08366 7.99998ZM15.0087 10.15C15.3087 10.45 15.5003 10.8666 15.5003 11.3333C15.5003 11.7916 15.317 12.2083 15.0087 12.5083L10.842 16.675C10.542 16.975 10.1253 17.1666 9.66699 17.1666C9.20866 17.1666 8.79199 16.9833 8.48366 16.675L2.65866 10.85C2.35033 10.5416 2.16699 10.125 2.16699 9.66665V5.49998C2.16699 4.57498 2.90866 3.83331 3.83366 3.83331H8.00033C8.45866 3.83331 8.87533 4.01665 9.17533 4.31665L15.0087 10.15ZM11.7837 5.25831L12.617 4.42498L18.342 10.15C18.6503 10.45 18.8337 10.875 18.8337 11.3333C18.8337 11.7916 18.6503 12.2083 18.3503 12.5083L13.867 16.9916L13.0337 16.1583L17.792 11.3333L11.7837 5.25831Z" fill="#E65100"/>
</svg>
